<svg xmlns="http://www.w3.org/2000/svg" width="140" height="140" viewBox="0 0 140 140"><g id="barley"><path id="barleyIcon" d="M128.28,24.18c-2.24-5.91-23.11.55-23.32.62-.77.24-1.55.51-2.32.78a3.85,3.85,0,0,0-.37-3.54c-2.72-3.84-12.42.1-18,2.79a52.23,52.23,0,0,0-8.39,5.11,3.64,3.64,0,0,0-1.47-1.82C70.69,25.8,63.9,31.77,60.2,35.53A39.47,39.47,0,0,0,55.11,42a3.1,3.1,0,0,0-.85-.49c-3.83-1.52-8.55,4.92-11,8.9a35.82,35.82,0,0,0-4.31,10.19c-1.14-2-2.55-3.36-4.38-3.28a2.5,2.5,0,0,0-.38.06,144.82,144.82,0,0,0-2.09-23.85c-.54-3.14-1.19-6.29-1.94-9.38a2,2,0,1,0-3.89.94c.73,3,1.36,6.07,1.89,9.11a141.05,141.05,0,0,1,2,27,20.76,20.76,0,0,0-1.16,3,138.91,138.91,0,0,0-5.3-16.73,137.5,137.5,0,0,0-8.41-17.79,2,2,0,1,0-3.48,2A134.16,134.16,0,0,1,20,48.89a135.24,135.24,0,0,1,7.51,28A34.86,34.86,0,0,0,28,81.72c.11.6.25,1.21.4,1.81a.08.08,0,0,0,0,0,33.74,33.74,0,0,0,3.6,8.9,97.92,97.92,0,0,0-5.59,25,2,2,0,0,0,1.81,2.17h.19a2,2,0,0,0,2-1.81c.15-1.71.35-3.4.59-5.08a68.84,68.84,0,0,1,11.21-11.66c15.67-12.79,33.65-15.83,46-16.13a2,2,0,0,0,2-2,2,2,0,0,0-2-2c-13,.31-31.87,3.53-48.41,17a71.34,71.34,0,0,0-7.16,6.76,91.4,91.4,0,0,1,3.41-11.3,1.73,1.73,0,0,0,.32,0,49.09,49.09,0,0,0,9.92-2.81c.18-.07,18.28-7.39,16.39-13.72a3.5,3.5,0,0,0-1-1.57,47.33,47.33,0,0,0,5.77-4.18c3.8-3.25,8.07-6.9,7.36-10.26,15.6-3.7,18.76-6.33,18.61-9.28a3,3,0,0,0-.06-.5A38,38,0,0,0,100,49.64c7.94-2.46,11.3-4.74,11.22-7.6a3.51,3.51,0,0,0-1.38-2.7,51.57,51.57,0,0,0,8-4C126.41,30.05,129.32,26.92,128.28,24.18ZM86.05,28.43c5.83-2.83,11.12-4.3,12.78-4a24,24,0,0,1-1.67,3.49,21.75,21.75,0,0,1-5.1,6.31,1.7,1.7,0,0,0-.29.31A109.55,109.55,0,0,0,74.52,42.6a39.87,39.87,0,0,0,1.83-7.9A48.27,48.27,0,0,1,86.05,28.43Zm-23,9.91c3.88-3.94,8-6.73,9.27-6.78a4.24,4.24,0,0,1,.16,1.74,2,2,0,0,0,0,.42A48.44,48.44,0,0,1,69.33,45.3a1.83,1.83,0,0,0-.12.6,99.67,99.67,0,0,0-12.65,9.92A38.63,38.63,0,0,0,57,50.45c0-1.25,0-2.51-.07-3.69A35.76,35.76,0,0,1,63.05,38.34ZM46.63,52.47c2.22-3.55,4.83-6.45,6.07-7.11a7.12,7.12,0,0,1,.2,1.19v0c.12,1.21.11,2.79.1,3.83a33.55,33.55,0,0,1-1.93,10.9,94,94,0,0,0-8.55,10.76,26.26,26.26,0,0,0-1.07-5.29A1.93,1.93,0,0,0,42,65.66,32.93,32.93,0,0,1,46.63,52.47ZM32.28,82.57c-.23-2.08-.53-4.15-.85-6.22a30.68,30.68,0,0,1,2.35-13.56,1.93,1.93,0,0,0,.22-.43,4.72,4.72,0,0,1,.67-1c.45.45,1.5,1.93,3,6.56a23.1,23.1,0,0,1,.68,10.89A95.18,95.18,0,0,0,34,87.56,29.08,29.08,0,0,1,32.28,82.57Zm12.4,4.29a45.21,45.21,0,0,1-7,2.15A88.64,88.64,0,0,1,42,80.51c.38-.68.78-1.34,1.17-2a25.5,25.5,0,0,1,7.26-1.3c5.64-.17,7.62.52,8.21.83C57.75,79.75,51.87,84,44.68,86.86ZM64.74,68.05a43.3,43.3,0,0,1-8,5.41,39.09,39.09,0,0,0-6.44-.24,29.21,29.21,0,0,0-4,.41,89.64,89.64,0,0,1,7.4-9.28,25.23,25.23,0,0,1,8.67-2.86,21.58,21.58,0,0,1,7.82,0l.23.07a2.1,2.1,0,0,1,.33.15C70.46,63.18,66.33,66.7,64.74,68.05ZM71,57.59a24.85,24.85,0,0,0-9.12-.06c-.51.07-1,.15-1.51.25a95.62,95.62,0,0,1,10.3-8A2.14,2.14,0,0,0,71,49.7a24.2,24.2,0,0,1,11.31-.26c4.06.89,6,1.8,6.75,2.32C88.05,52.58,84.37,54.58,71,57.59ZM98.82,45.82a33.86,33.86,0,0,1-9.61,1.52,34.63,34.63,0,0,0-6.06-1.81,27.52,27.52,0,0,0-4.64-.59,105.33,105.33,0,0,1,14.73-6.71l.14,0c9.94,1.69,12.85,3.29,13.65,3.91C106.45,42.73,104.59,44,98.82,45.82Zm17-13.91a47.09,47.09,0,0,1-10.34,4.77,1.89,1.89,0,0,0-.43.2,62.2,62.2,0,0,0-7.9-2,.07.07,0,0,1,0-.05A26.06,26.06,0,0,0,100,31a57.41,57.41,0,0,1,6.17-2.33c7.62-2.39,15.22-3.25,17.87-2.85C123.26,26.68,121.21,28.56,115.78,31.91Z"/></g></svg>