<svg id="keg" xmlns="http://www.w3.org/2000/svg" width="140" height="140" viewBox="0 0 140 140"><path id="kegIcon" d="M59,54.68H75.25a5.84,5.84,0,1,0,0-11.67H59a5.84,5.84,0,0,0,0,11.67ZM59,47H75.25a1.84,1.84,0,1,1,0,3.67H59A1.84,1.84,0,0,1,59,47ZM90.86,33.7H73.18V24.76a2,2,0,0,0-2-2H69.11V17.24h5a2,2,0,1,0,0-4h-14a2,2,0,0,0,0,4h5v5.52H63a2,2,0,0,0-2,2V33.7H43.36A10.72,10.72,0,0,0,32.65,44.41v75.88A10.72,10.72,0,0,0,43.36,131h47.5a10.73,10.73,0,0,0,10.71-10.72V44.41A10.72,10.72,0,0,0,90.86,33.7Zm6.71,48.63H36.65V65.73H97.57Zm-60.92,4H97.57v16.61H36.65ZM65,26.76h4.14V33.7H65ZM43.36,37.7h47.5a6.72,6.72,0,0,1,6.71,6.71V61.73H36.65V44.41A6.72,6.72,0,0,1,43.36,37.7ZM90.86,127H43.36a6.72,6.72,0,0,1-6.71-6.72V106.94H97.57v13.35A6.72,6.72,0,0,1,90.86,127Z"/></svg>