<svg xmlns="http://www.w3.org/2000/svg" width="140" height="140" viewBox="0 0 140 140"><g id="hops"><path id="hops_icon" d="M105.66,77a2.05,2.05,0,0,0-.63-1.55,2,2,0,0,0-1.6-.53c-.67.07-1.34.19-2,.3a40.22,40.22,0,0,0-3.08-22.82,2,2,0,0,0-2.48-1.07c-1,.34-1.92.73-2.85,1.14a30.5,30.5,0,0,0-6.55-18.57,2,2,0,0,0-2.61-.48c-1,.59-1.9,1.23-2.8,1.9a38.27,38.27,0,0,0-4.61-9.14,37.64,37.64,0,0,0-5-5.9,2,2,0,0,0-2.71,0,37.22,37.22,0,0,0-10.21,15c-.89-.65-1.8-1.27-2.74-1.85a2,2,0,0,0-2.61.48,30.5,30.5,0,0,0-6.55,18.57c-.93-.41-1.87-.8-2.85-1.14a2,2,0,0,0-2.48,1.07,40.15,40.15,0,0,0-3,23c-.55-.08-1.1-.18-1.66-.24a2,2,0,0,0-1.64.59,2,2,0,0,0-.56,1.65,38.11,38.11,0,0,0,13,24.11,36.77,36.77,0,0,0,20.54,8.41v8.39a2,2,0,0,0,4,0V110A35.11,35.11,0,0,0,95.75,99.8,35.61,35.61,0,0,0,105.66,77ZM97.82,66.39a36.25,36.25,0,0,1-.63,9.74,36.56,36.56,0,0,0-4.65,1.62,38.93,38.93,0,0,0-8.28,4.82A48.2,48.2,0,0,0,78.48,76l-.62-.56a30.78,30.78,0,0,1,8.53-13.89,30.14,30.14,0,0,1,9-5.8A36.43,36.43,0,0,1,97.82,66.39ZM65.16,73a35.4,35.4,0,0,0-4.24-8.55,29.3,29.3,0,0,1,9-17.18,32,32,0,0,1,4.26,4.82,32.91,32.91,0,0,1,5.23,11.23.14.14,0,0,1,0,.06,35.27,35.27,0,0,0-4.89,9.3q-1.72-1.34-3.55-2.5a2,2,0,0,0-2.21,0C67.54,71.07,66.33,72,65.16,73ZM84.38,37.79A26.41,26.41,0,0,1,88.12,46a26.77,26.77,0,0,1,.82,8.64,34.14,34.14,0,0,0-5.27,4c-.4.36-.77.73-1.14,1.11a36.82,36.82,0,0,0-5.1-10c-.65-.9-1.36-1.76-2.09-2.6a32.52,32.52,0,0,1,4.49-5.57A33.34,33.34,0,0,1,84.38,37.79ZM65.93,29.38a33.9,33.9,0,0,1,4-4.9,33,33,0,0,1,3.17,3.93,34.16,34.16,0,0,1,4.57,9.64l-.7.65a36.63,36.63,0,0,0-4.54,5.47c-.42-.39-.83-.77-1.27-1.13a2,2,0,0,0-2.56,0c-.5.42-1,.84-1.44,1.28a36.63,36.63,0,0,0-4.63-5.61c-.25-.25-.51-.48-.77-.72A33.24,33.24,0,0,1,65.93,29.38ZM51.48,46a26.25,26.25,0,0,1,3.74-8.15,32.55,32.55,0,0,1,4.55,3.74,33.2,33.2,0,0,1,4.61,5.76A33.23,33.23,0,0,0,60.56,53a33.65,33.65,0,0,0-2.89,7.39c-.55-.58-1.12-1.17-1.74-1.74a34.14,34.14,0,0,0-5.27-4A26.77,26.77,0,0,1,51.48,46Zm-9.7,20.44a36.43,36.43,0,0,1,2.4-10.65,30.14,30.14,0,0,1,9,5.8,30.81,30.81,0,0,1,8.67,14.39l-.85.83a53.74,53.74,0,0,0-4.78,5.64,43.07,43.07,0,0,0-9-4.68,44.81,44.81,0,0,0-4.82-1.5A36.89,36.89,0,0,1,41.78,66.39ZM69.43,106A32.6,32.6,0,0,1,50,98.44a33.74,33.74,0,0,1-11.2-18.92,40.11,40.11,0,0,1,7.06,1.94,39.64,39.64,0,0,1,9.69,5.33,2,2,0,0,0,2.86-.48,49.43,49.43,0,0,1,11.6-12,45.86,45.86,0,0,1,5.75,4.63,44.82,44.82,0,0,1,6.45,7.69,2,2,0,0,0,3,.42,34.65,34.65,0,0,1,9-5.57,34.13,34.13,0,0,1,7.32-2.21A31.25,31.25,0,0,1,92.9,97C84.41,105.61,73.66,106.17,69.43,106Z"/></g></svg>