<svg xmlns="http://www.w3.org/2000/svg" width="140" height="140" viewBox="0 0 140 140"><g id="pint"><path id="pintIcon" d="M110.54,52.24a12.35,12.35,0,0,0-8-14.91,12.79,12.79,0,0,0-12.82,2.93A13.11,13.11,0,0,0,83,34.48a13.47,13.47,0,0,0-10.7.68,16.23,16.23,0,0,0-14.71-5.82A16.42,16.42,0,0,0,44.22,42.43,13.44,13.44,0,0,0,31.8,48.17c-4.08,6.2-1.43,14.33,3.59,18l.17.12A12.45,12.45,0,0,0,23.33,78.75v18a12.45,12.45,0,0,0,12.44,12.44h6a17,17,0,0,0,16.52,13.1h24a17,17,0,0,0,17-17l.26-44.54A12.18,12.18,0,0,0,110.54,52.24Zm-75.4-1.87a9.28,9.28,0,0,1,7.83-4,10.56,10.56,0,0,1,2.48.29,2,2,0,0,0,2.46-1.79A12.5,12.5,0,0,1,58.18,33.3,12.32,12.32,0,0,1,70.1,38.89a2,2,0,0,0,2.84.52,9.85,9.85,0,0,1,8.66-1.19,9.69,9.69,0,0,1,5.71,6.3,2,2,0,0,0,3.62.55,9,9,0,0,1,10.34-4c3.68,1.29,6.75,5.6,5.44,10a8.35,8.35,0,0,1-9.36,5.59,2,2,0,0,0-2,.92c-1,1.69-4,5.71-9.1,6.71-6.34,1.24-13.12-2.65-16.49-9.46a2,2,0,0,0-1.4-1.07,2,2,0,0,0-1.7.44,8.4,8.4,0,0,1-4.06,1.94,8.55,8.55,0,0,1-5.23-.78,2,2,0,0,0-1.61-.07,2,2,0,0,0-1.15,1.14,12.11,12.11,0,0,1-3.69,5.15c-2.49,2-8.43,4.84-13.12,1.38C34.21,60.36,32.31,54.67,35.14,50.37ZM41.29,98H39.08a4.58,4.58,0,0,1-4.57-4.57V82.08a4.57,4.57,0,0,1,4.57-4.56h2.21Zm-14-1.23v-18a8.44,8.44,0,0,1,8.44-8.44h5.52v3.21H39.08a8.57,8.57,0,0,0-8.57,8.56V93.4A8.57,8.57,0,0,0,39.08,102h2.21v3.21H35.77A8.45,8.45,0,0,1,27.33,96.74Zm54.94,21.54h-24a13,13,0,0,1-13-13V100s0,0,0-.06,0,0,0-.06V68.36a18,18,0,0,0,8.1-3.64,16,16,0,0,0,4.09-5,12.46,12.46,0,0,0,5.77.37,12.31,12.31,0,0,0,4-1.45c4.47,7.15,12.29,11,19.72,9.58a16.92,16.92,0,0,0,8.51-4.56l-.24,41.63A13,13,0,0,1,82.27,118.28ZM56,71.51a5.4,5.4,0,0,0-5.39,5.4v32.41a5.39,5.39,0,0,0,10.78,0V76.91A5.4,5.4,0,0,0,56,71.51Zm1.39,37.81a1.39,1.39,0,0,1-2.78,0V76.91a1.39,1.39,0,1,1,2.78,0ZM70.28,71.51a5.4,5.4,0,0,0-5.4,5.4v32.41a5.4,5.4,0,0,0,10.79,0V76.91A5.4,5.4,0,0,0,70.28,71.51Zm1.39,37.81a1.4,1.4,0,0,1-2.79,0V76.91a1.4,1.4,0,1,1,2.79,0ZM84.6,71.51a5.4,5.4,0,0,0-5.4,5.4v32.41a5.4,5.4,0,0,0,10.79,0V76.91A5.4,5.4,0,0,0,84.6,71.51ZM86,109.32a1.39,1.39,0,0,1-1.39,1.39,1.42,1.42,0,0,1-1.4-1.39V76.91a1.42,1.42,0,0,1,1.4-1.4A1.4,1.4,0,0,1,86,76.91ZM40.14,29.05a5.67,5.67,0,1,0-5.66-5.67A5.67,5.67,0,0,0,40.14,29.05Zm0-7.33a1.67,1.67,0,1,1-1.66,1.66A1.66,1.66,0,0,1,40.14,21.72ZM111,67.85a5.67,5.67,0,1,0,5.66,5.66A5.67,5.67,0,0,0,111,67.85Zm0,7.33a1.67,1.67,0,1,1,1.66-1.67A1.67,1.67,0,0,1,111,75.18Zm-19.35-42A5.67,5.67,0,1,0,86,27.51,5.67,5.67,0,0,0,91.66,33.18Zm0-7.33A1.67,1.67,0,1,1,90,27.51,1.67,1.67,0,0,1,91.66,25.85Z"/></g></svg>